<?xml version="1.0" standalone="no"?><!DOCTYPE svg PUBLIC "-//W3C//DTD SVG 1.1//EN" "http://www.w3.org/Graphics/SVG/1.1/DTD/svg11.dtd"><svg t="1624809039271" class="icon" viewBox="0 0 1024 1024" version="1.1" xmlns="http://www.w3.org/2000/svg" p-id="924" xmlns:xlink="http://www.w3.org/1999/xlink" width="200" height="200"><defs><style type="text/css"></style></defs><path d="M445.493333 46.72c95.733333-13.653333 195.626667 2.613333 281.493334 47.253333 92.373333 47.36 168.16 126.24 211.626666 220.48 46.986667 100.426667 56.16 217.706667 26.24 324.426667-26.24 94.293333-82.826667 180-159.573333 240.8-72.586667 58.133333-162.826667 94.24-255.68 101.013333-116.586667 10.293333-236.32-26.186667-328.053333-98.773333-66.08-51.52-117.546667-121.44-147.893334-199.466667-44.106667-112.48-42.186667-242.133333 5.226667-353.226666 61.866667-149.6 206.026667-261.226667 366.613333-282.506667M270.4 350.08c-61.76 30.453333-102.986667 98.4-99.413333 167.413333 0.693333 66.666667 42.72 130.24 102.933333 158.293334 39.253333 19.04 84.853333 21.173333 127.093333 12.64 49.12-10.293333 90.453333-41.973333 124.8-77.173334 53.6-54.72 86.453333-124.96 129.6-187.36 22.666667 41.173333 45.333333 82.346667 67.786667 123.573334-24.586667-15.786667-46.773333-35.04-72.16-49.653334-16.746667 11.946667-33.28 24.213333-50.186667 35.946667 62.08 49.013333 126.666667 94.826667 190.026667 142.186667 12.96 8.746667 27.84 23.253333 44.64 14.666666 17.6-7.146667 22.613333-30.346667 12.106667-45.44-52.373333-99.466667-108.48-196.906667-163.253334-295.093333-5.653333-13.066667-19.626667-22.773333-34.24-18.56-13.493333 2.133333-20.266667 15.52-27.146666 25.76-32.106667 52.8-61.813333 107.146667-97.44 157.76-33.866667 48.213333-77.12 96.373333-136.586667 110.88-58.026667 15.2-126.026667-14.506667-148.213333-71.68-17.813333-46.133333-2.933333-102.613333 36.533333-132.8 35.946667-29.013333 86.72-31.093333 129.386667-17.653333 42.666667 13.76 76.533333 44.48 110.773333 72.053333 17.493333-12.053333 36-23.146667 50.986667-38.4-44.96-39.84-93.013333-79.306667-151.146667-97.76-48.16-12.64-101.813333-13.12-146.88 10.4z" fill="#ffffff" p-id="925"></path><path d="M254.29333333 339.28533333c48.07111147-25.088 105.30133333-24.576 156.672-11.09333333 62.00888853 19.6835552 113.26577813 61.78133333 161.22311147 104.27733333-15.98577813 16.27022187-35.72622187 28.10311147-54.38577813 40.96-36.52266667-29.4115552-72.64711147-62.1795552-118.15822187-76.85688853-45.51111147-14.336-99.66933333-12.11733333-138.0124448 18.83022187-42.09777813 32.19911147-57.96977813 92.4444448-38.96888853 141.65333333 23.66577813 60.98488853 96.19911147 92.672 158.09422186 76.45866667 63.43111147-15.47377813 109.568-66.8444448 145.6924448-118.272 38.00177813-53.9875552 69.68888853-111.95733333 103.936-168.27733334 7.33866667-10.92266667 14.5635552-25.20177813 28.95644374-27.47733333 15.5875552-4.49422187 30.4924448 5.8595552 36.52266666 19.79733333 58.42488853 104.7324448 118.272 208.6684448 174.1368896 314.76622187 11.20711147 16.0995552 5.8595552 40.84622187-12.91377813 48.46933333-17.92 9.15911147-33.792-6.31466667-47.616-15.64444373-67.584-50.51733333-136.4764448-99.38488853-202.69511147-151.66577813 18.03377813-12.5155552 35.66933333-25.6 53.5324448-38.34311147 27.07911147 15.5875552 50.74488853 36.1244448 76.97066667 52.96355627-23.95022187-43.97511147-48.128-87.89333333-72.30577813-131.81155627-46.02311147 66.56-81.06666667 141.48266667-138.24 199.85066667-36.6364448 37.54666667-80.72533333 71.33866667-133.12 82.31822293-45.056 9.10222187-93.696 6.82666667-135.56622187-13.48266667-64.2275552-29.9235552-109.056-97.73511147-109.7955552-168.84622293-3.8115552-73.61422187 40.1635552-146.09066667 106.04088853-178.57422187z" fill="#333333" p-id="926"></path></svg>